<svg width="30" height="42" viewBox="0 0 30 42" fill="none" xmlns="http://www.w3.org/2000/svg">
<path fill-rule="evenodd" clip-rule="evenodd" d="M17.8957 0C18.7309 0.000735219 19.5315 0.333092 20.1217 0.924L28.7779 9.576C29.0706 9.8689 29.3027 10.2166 29.4609 10.5993C29.6191 10.982 29.7003 11.3921 29.6998 11.8062V38.85C29.6998 39.6854 29.3679 40.4866 28.7772 41.0774C28.1864 41.6681 27.3852 42 26.5498 42H3.4498C2.61437 42 1.81316 41.6681 1.22242 41.0774C0.631679 40.4866 0.299805 39.6854 0.299805 38.85V3.15C0.299805 2.31457 0.631679 1.51335 1.22242 0.922614C1.81316 0.331874 2.61437 0 3.4498 0L17.8957 0ZM22.7845 22.4847C22.3907 22.8784 21.8566 23.0996 21.2998 23.0996C20.743 23.0996 20.2089 22.8784 19.8151 22.4847L17.0998 19.7694V27.3C17.0998 27.857 16.8786 28.3911 16.4847 28.7849C16.0909 29.1787 15.5568 29.4 14.9998 29.4C14.4428 29.4 13.9087 29.1787 13.5149 28.7849C13.1211 28.3911 12.8998 27.857 12.8998 27.3V19.7694L10.1845 22.4847C9.78844 22.8672 9.25797 23.0789 8.70736 23.0741C8.15675 23.0693 7.63004 22.8485 7.24069 22.4591C6.85133 22.0698 6.63047 21.5431 6.62569 20.9924C6.6209 20.4418 6.83257 19.9114 7.21511 19.5153L13.5151 13.2153C13.9089 12.8216 14.443 12.6004 14.9998 12.6004C15.5566 12.6004 16.0907 12.8216 16.4845 13.2153L22.7845 19.5153C23.1782 19.9091 23.3994 20.4432 23.3994 21C23.3994 21.5568 23.1782 22.0909 22.7845 22.4847Z" fill="#FBA457"/>
</svg>
